<svg xmlns="http://www.w3.org/2000/svg" xmlns:xlink="http://www.w3.org/1999/xlink" fill="none" version="1.1" width="40" height="40" viewBox="0 0 40 40"><g style="mix-blend-mode:passthrough"><g style="mix-blend-mode:passthrough"><g style="mix-blend-mode:passthrough"><rect x="0" y="0" width="40" height="40" rx="3" fill="#409EFF" fill-opacity="1"/></g><g><path d="M3.0625,30L9.80469,30C13.6953,30,16.789099999999998,28.375,16.789099999999998,24.6172C16.789099999999998,22.125,15.4219,20.7812,13.625,20.2969L13.625,20.2031C15.0625,19.6484,15.9531,17.9531,15.9531,16.414099999999998C15.9531,13.0156,13,12,9.30469,12L3.0625,12L3.0625,30ZM7.35938,19L7.35938,15.2891L9.13281,15.2891C10.92969,15.2891,11.7734,15.8047,11.7734,17.039099999999998C11.7734,18.2344,10.95312,19,9.13281,19L7.35938,19ZM7.35938,26.7188L7.35938,22.1484L9.49219,22.1484C11.5781,22.1484,12.6094,22.7812,12.6094,24.3203C12.6094,25.9297,11.5547,26.7188,9.49219,26.7188L7.35938,26.7188Z" fill="#FFFFFF" fill-opacity="1"/></g><g style="mix-blend-mode:passthrough"><path d="M26.2307,24.71706Q26.2484,24.745269999999998,26.2643,24.7746Q26.280099999999997,24.80393,26.294,24.83425Q26.3078,24.86457,26.3196,24.89575Q26.3315,24.92693,26.3412,24.95882Q26.3509,24.99071,26.3584,25.02318Q26.366,25.05565,26.3714,25.088549999999998Q26.3768,25.12145,26.3799,25.15464Q26.3831,25.187829999999998,26.3841,25.22115Q26.384999999999998,25.25448,26.3838,25.28779Q26.3825,25.3211,26.378999999999998,25.35426Q26.3756,25.38742,26.3699,25.420270000000002Q26.3642,25.45312,26.3564,25.48552Q26.3485,25.51792,26.3385,25.54973Q26.3285,25.58153,26.3164,25.6126Q26.3044,25.64367,26.2902,25.67387Q26.2761,25.70406,26.259999999999998,25.733249999999998Q26.2439,25.762439999999998,26.2258,25.79049Q26.2078,25.81854,26.188000000000002,25.84532Q26.168100000000003,25.87211,26.1466,25.89752Q26.125,25.92292,26.1017,25.94683Q26.0785,25.97074,26.0537,25.99306Q26.029,26.01537,26.0028,26.035980000000002Q25.97655,26.05659,25.94903,26.075409999999998Q25.921509999999998,26.09423,25.8928,26.111179999999997Q25.864089999999997,26.12812,25.834319999999998,26.14312Q25.80454,26.15812,25.77383,26.1711Q25.74313,26.18408,25.71162,26.19498Q25.680120000000002,26.20589,25.647959999999998,26.214669999999998Q25.6158,26.22345,25.58312,26.23008Q25.550449999999998,26.2367,25.517409999999998,26.24113Q25.484360000000002,26.245559999999998,25.4511,26.24778Q25.417830000000002,26.25,25.3845,26.25L18.6155,26.25Q18.582160000000002,26.25,18.5489,26.24778Q18.51564,26.245559999999998,18.482590000000002,26.24113Q18.44955,26.2367,18.41688,26.23008Q18.3842,26.22345,18.35204,26.214669999999998Q18.31988,26.20589,18.28838,26.19498Q18.25687,26.18408,18.22616,26.17109Q18.19546,26.15811,18.165680000000002,26.14312Q18.13591,26.12812,18.1072,26.111179999999997Q18.07849,26.09423,18.05097,26.075409999999998Q18.02345,26.05659,17.99725,26.035980000000002Q17.97104,26.01537,17.94627,25.99305Q17.9215,25.97074,17.89827,25.94683Q17.87504,25.92292,17.85345,25.89751Q17.83186,25.87211,17.81202,25.84532Q17.79217,25.81853,17.77415,25.79049Q17.75613,25.762439999999998,17.74002,25.733249999999998Q17.72391,25.70406,17.70978,25.67387Q17.69565,25.64367,17.68356,25.6126Q17.67147,25.58153,17.66148,25.54973Q17.65149,25.51792,17.64363,25.48552Q17.63578,25.45312,17.6301,25.420270000000002Q17.62443,25.38742,17.62095,25.35426Q17.61748,25.3211,17.61622,25.28779Q17.61496,25.25447,17.61592,25.22115Q17.616880000000002,25.187829999999998,17.62006,25.15464Q17.62324,25.12145,17.62862,25.088549999999998Q17.634,25.05565,17.64157,25.02318Q17.64913,24.99071,17.658830000000002,24.95882Q17.66854,24.92693,17.68035,24.89575Q17.69216,24.86457,17.70602,24.83425Q17.71988,24.80393,17.73573,24.7746Q17.75158,24.745269999999998,17.76935,24.71706L21.15385,19.34345Q21.18749,19.29003,21.22758,19.24127Q21.26768,19.19251,21.313589999999998,19.14918Q21.3595,19.10584,21.41049,19.06863Q21.46148,19.03141,21.516750000000002,19.00091Q21.572020000000002,18.970399,21.630679999999998,18.947084Q21.68935,18.92377,21.75048,18.908018Q21.81161,18.892266,21.87424,18.884327Q21.93687,18.876388,22,18.876388Q22.06313,18.876388,22.12576,18.884327Q22.188380000000002,18.892266,22.24952,18.908018Q22.31065,18.92377,22.369320000000002,18.947084Q22.427979999999998,18.970399,22.483249999999998,19.00091Q22.53852,19.03141,22.58951,19.06863Q22.6405,19.10584,22.686410000000002,19.14918Q22.73232,19.19251,22.77241,19.24127Q22.81251,19.29003,22.84615,19.34345L26.2307,24.71706Z" fill="#FFFFFF" fill-opacity="1"/></g><g style="mix-blend-mode:passthrough"><path d="M25.55794,32L37.0768,32L37.0768,28.987L30.32292,28.987L36.8483,19.4316L36.8483,17.375L26.28581,17.375L26.28581,20.3965L32.0918,20.3965L25.55794,29.9772L25.55794,32Z" fill="#FFFFFF" fill-opacity="1"/></g></g></g></svg>